<svg version="1.1" xmlns="http://www.w3.org/2000/svg" viewBox="0 0 629 390" width="629" height="390">
  <!-- svg-source:excalidraw -->
  
  <defs>
    <style class="style-fonts">
      @font-face {
        font-family: "Virgil";
        src: url("https://excalidraw.com/Virgil.woff2");
      }
      @font-face {
        font-family: "Cascadia";
        src: url("https://excalidraw.com/Cascadia.woff2");
      }
      @font-face {
        font-family: "Assistant";
        src: url("https://excalidraw.com/Assistant-Regular.woff2");
      }
    </style>
    
  </defs>
  <rect x="0" y="0" width="629" height="390" fill="#ffffff"></rect><g stroke-linecap="round" transform="translate(10 80) rotate(0 55 55)"><path d="M40.93 0.89 C49.03 -2.01, 60.1 -0.96, 68.88 1.76 C77.66 4.48, 87.2 10.76, 93.6 17.21 C100 23.67, 104.81 31.86, 107.26 40.5 C109.71 49.14, 110.48 60.2, 108.29 69.05 C106.09 77.9, 100.69 87.19, 94.08 93.59 C87.48 100, 77.79 105.12, 68.66 107.5 C59.53 109.87, 48 110.14, 39.31 107.84 C30.63 105.55, 22.81 100.11, 16.53 93.74 C10.24 87.37, 3.92 78.66, 1.6 69.62 C-0.72 60.59, 0.04 48.37, 2.61 39.54 C5.18 30.71, 10.32 22.88, 17.04 16.66 C23.76 10.44, 38.25 4.5, 42.93 2.21 C47.62 -0.08, 45.03 2.06, 45.16 2.92 M71.73 2.61 C80.57 4.61, 91.02 12.13, 97.31 19.2 C103.61 26.27, 107.76 36.31, 109.52 45.03 C111.28 53.76, 110.67 63.12, 107.87 71.55 C105.07 79.98, 99.51 89.36, 92.69 95.6 C85.88 101.85, 76.22 107.31, 66.97 109.02 C57.72 110.72, 46.1 108.71, 37.19 105.83 C28.27 102.95, 19.59 98.46, 13.48 91.74 C7.37 85.02, 2.14 74.41, 0.55 65.53 C-1.04 56.65, 0.85 47.05, 3.93 38.45 C7.02 29.86, 12.16 20.34, 19.06 13.97 C25.96 7.59, 36.63 2.23, 45.32 0.21 C54 -1.82, 66.76 1.19, 71.17 1.81 C75.58 2.43, 71.73 2.73, 71.78 3.94" stroke="#1e1e1e" stroke-width="2" fill="none"></path></g><g stroke-linecap="round" transform="translate(280 85) rotate(0 55 55)"><path d="M54.87 -0.65 C63.41 -1.23, 74.81 2.85, 82.92 7.75 C91.03 12.64, 99.11 20.89, 103.52 28.71 C107.94 36.52, 109.59 45.68, 109.44 54.62 C109.28 63.55, 107.18 74.29, 102.57 82.31 C97.97 90.33, 89.95 98.02, 81.82 102.73 C73.69 107.44, 62.98 110.8, 53.79 110.6 C44.6 110.39, 34.38 106.25, 26.69 101.51 C19 96.78, 12.08 90.18, 7.63 82.17 C3.18 74.17, 0.04 62.71, -0.02 53.48 C-0.08 44.25, 2.61 34.44, 7.27 26.79 C11.93 19.15, 18.44 12.06, 27.96 7.63 C37.48 3.2, 57 0.8, 64.39 0.21 C71.78 -0.38, 72.51 2.91, 72.31 4.06 M49.5 0.26 C58.1 -1.52, 69.05 1.98, 77.53 5.73 C86 9.47, 94.98 15.5, 100.35 22.71 C105.72 29.91, 108.84 39.92, 109.73 48.95 C110.62 57.97, 109.34 68.28, 105.67 76.86 C101.99 85.44, 95.29 94.87, 87.69 100.41 C80.1 105.96, 69.19 109.25, 60.11 110.11 C51.04 110.96, 41.25 109.04, 33.24 105.55 C25.24 102.06, 17.66 96.44, 12.07 89.17 C6.49 81.9, 1.01 71.29, -0.25 61.92 C-1.5 52.54, 0.57 41.47, 4.53 32.92 C8.49 24.37, 16.18 16.15, 23.52 10.59 C30.85 5.03, 44.48 1.15, 48.54 -0.45 C52.6 -2.06, 47.8 -0.22, 47.88 0.95" stroke="#1e1e1e" stroke-width="2" fill="none"></path></g><g stroke-linecap="round" transform="translate(509 10) rotate(0 55 55)"><path d="M70.12 2.66 C78.45 4.51, 88.15 10.79, 94.53 17.35 C100.91 23.92, 106.12 33.14, 108.4 42.05 C110.67 50.96, 110.98 61.86, 108.19 70.81 C105.4 79.77, 98.45 89.51, 91.68 95.8 C84.9 102.09, 76.49 106.68, 67.54 108.58 C58.59 110.47, 46.8 109.88, 37.98 107.19 C29.15 104.5, 20.57 99.11, 14.57 92.43 C8.57 85.74, 4.09 76.12, 1.96 67.07 C-0.18 58.02, -0.8 46.91, 1.77 38.1 C4.33 29.3, 10.38 20.39, 17.34 14.24 C24.3 8.08, 33.6 2.68, 43.52 1.17 C53.45 -0.34, 70.5 4.06, 76.89 5.18 C83.29 6.3, 82.21 7.04, 81.88 7.89 M76.92 4.61 C85.16 7.26, 93.39 14.8, 99.05 21.89 C104.72 28.99, 109.72 38.07, 110.88 47.2 C112.05 56.33, 109.85 67.85, 106.05 76.68 C102.24 85.52, 95.23 94.84, 88.05 100.22 C80.86 105.61, 71.93 108.1, 62.92 108.99 C53.9 109.89, 42.64 108.87, 33.94 105.59 C25.25 102.31, 16.36 96.67, 10.73 89.32 C5.09 81.96, 1.31 70.92, 0.12 61.45 C-1.07 51.98, 0.05 40.93, 3.61 32.48 C7.17 24.04, 13.91 16.18, 21.51 10.78 C29.11 5.37, 39.89 1.29, 49.21 0.05 C58.53 -1.19, 72.93 2.49, 77.44 3.33 C81.96 4.17, 76.67 4.14, 76.29 5.11" stroke="#1e1e1e" stroke-width="2" fill="none"></path></g><g stroke-linecap="round" transform="translate(128 270) rotate(0 55 55)"><path d="M55.1 -0.07 C63.75 -1.07, 74.31 2.3, 82.2 6.91 C90.08 11.53, 97.71 19.58, 102.43 27.6 C107.15 35.63, 110.41 45.99, 110.51 55.05 C110.61 64.12, 107.74 74.09, 103.04 82.01 C98.34 89.92, 90.3 97.92, 82.32 102.55 C74.35 107.18, 64.44 109.71, 55.19 109.76 C45.93 109.81, 34.65 107.59, 26.78 102.86 C18.92 98.13, 12.33 89.46, 7.98 81.38 C3.62 73.29, 0.71 63.5, 0.64 54.35 C0.58 45.21, 3.14 34.24, 7.57 26.52 C12.01 18.81, 18.2 12.37, 27.25 8.06 C36.3 3.75, 55.11 1.52, 61.88 0.66 C68.64 -0.2, 68.15 1.97, 67.84 2.9 M71.55 3.65 C80.12 5.77, 89.3 11.44, 95.43 18.12 C101.55 24.8, 106.14 34.87, 108.29 43.73 C110.45 52.59, 110.96 62.75, 108.33 71.27 C105.7 79.8, 99.22 88.42, 92.51 94.86 C85.81 101.3, 77.01 107.75, 68.09 109.9 C59.17 112.06, 47.74 110.98, 38.98 107.81 C30.21 104.65, 22.02 97.5, 15.5 90.93 C8.99 84.35, 2.13 77.03, -0.11 68.37 C-2.35 59.71, -0.82 47.79, 2.07 38.95 C4.96 30.1, 10.33 21.32, 17.23 15.3 C24.14 9.28, 34.63 4.88, 43.51 2.81 C52.39 0.74, 65.87 2.89, 70.53 2.86 C75.19 2.84, 71.64 1.96, 71.46 2.66" stroke="#1e1e1e" stroke-width="2" fill="none"></path></g><g stroke-linecap="round" transform="translate(460 261) rotate(0 55 55)"><path d="M33.4 4.36 C41.04 0.11, 51.6 -1.17, 60.61 0 C69.63 1.18, 80.09 5.92, 87.48 11.4 C94.87 16.89, 101.09 24.57, 104.95 32.89 C108.81 41.21, 111.56 52.24, 110.63 61.34 C109.7 70.43, 104.99 80.1, 99.38 87.46 C93.76 94.83, 85.41 101.95, 76.94 105.52 C68.46 109.1, 57.59 109.98, 48.52 108.92 C39.45 107.87, 29.97 104.34, 22.53 99.18 C15.09 94.01, 7.74 86.13, 3.87 77.92 C0.01 69.7, -1.62 59.03, -0.67 49.87 C0.29 40.71, 3.4 30.89, 9.61 22.94 C15.82 14.99, 31.38 5.57, 36.58 2.18 C41.79 -1.21, 40.52 1.67, 40.83 2.6 M53.52 -0.47 C62.21 -1.55, 72.84 2.83, 80.73 7.15 C88.62 11.46, 95.84 17.85, 100.88 25.4 C105.92 32.95, 110.54 42.95, 110.98 52.44 C111.42 61.92, 107.91 73.9, 103.52 82.3 C99.13 90.71, 92.7 98.46, 84.63 102.87 C76.57 107.29, 64.29 108.94, 55.11 108.79 C45.93 108.64, 37.59 105.92, 29.56 101.97 C21.54 98.01, 11.69 92.55, 6.97 85.07 C2.24 77.59, 1.35 66.46, 1.22 57.08 C1.1 47.71, 2.29 37.01, 6.2 28.83 C10.11 20.64, 16.82 12.94, 24.68 7.99 C32.53 3.04, 48.61 0.19, 53.34 -0.88 C58.07 -1.95, 53.21 0.47, 53.07 1.58" stroke="#1e1e1e" stroke-width="2" fill="none"></path></g><g stroke-linecap="round"><g transform="translate(125 138) rotate(0 72 2.5)"><path d="M-0.22 -1.06 C23.98 -0.1, 120.5 4.22, 144.5 5.16 M-1.79 0.99 C22.35 2.23, 119.7 6.01, 143.81 6.78" stroke="#1e1e1e" stroke-width="2" fill="none"></path></g></g><mask></mask><g stroke-linecap="round"><g transform="translate(387 111) rotate(0 56.5 -15.5)"><path d="M0.63 -0.88 C19.44 -6.21, 94.97 -26.94, 113.84 -31.82 M-0.5 1.27 C18.14 -3.93, 94.32 -25.16, 113.33 -30.72" stroke="#1e1e1e" stroke-width="2" fill="none"></path></g></g><mask></mask><g stroke-linecap="round"><g transform="translate(378 186) rotate(0 39.5 37.5)"><path d="M-0.06 -0.26 C13.43 12.38, 66.95 63.8, 80.12 76.17 M-1.56 -1.44 C11.96 10.87, 66.47 61.96, 79.75 74.66" stroke="#1e1e1e" stroke-width="2" fill="none"></path></g></g><mask></mask><g stroke-linecap="round"><g transform="translate(289 194) rotate(0 -33 43)"><path d="M0.73 0.02 C-10.31 14.41, -54.65 72.28, -65.65 86.75 M-0.35 -1.02 C-11.56 12.99, -55.53 70.7, -66.41 85.01" stroke="#1e1e1e" stroke-width="2" fill="none"></path></g></g><mask></mask><g stroke-linecap="round"><g transform="translate(110 192) rotate(0 21 41.5)"><path d="M-0.24 -0.32 C7 13.29, 35.82 68.35, 42.83 82.35 M-1.82 -1.53 C5.39 12.16, 35.19 69.68, 42.32 83.55" stroke="#1e1e1e" stroke-width="2" fill="none"></path></g></g><mask></mask><g transform="translate(530 53) rotate(0 32.125 12.5)"><text x="0" y="0" font-family="Virgil, Segoe UI Emoji" font-size="20px" fill="#1e1e1e" text-anchor="start" style="white-space: pre;" direction="ltr" dominant-baseline="text-before-edge">Knoten</text></g><g transform="translate(303 126) rotate(0 32.125 12.5)"><text x="0" y="0" font-family="Virgil, Segoe UI Emoji" font-size="20px" fill="#1e1e1e" text-anchor="start" style="white-space: pre;" direction="ltr" dominant-baseline="text-before-edge">Knoten</text></g><g transform="translate(480 304) rotate(0 32.125 12.5)"><text x="0" y="0" font-family="Virgil, Segoe UI Emoji" font-size="20px" fill="#1e1e1e" text-anchor="start" style="white-space: pre;" direction="ltr" dominant-baseline="text-before-edge">Knoten</text></g><g transform="translate(152 312) rotate(0 32.125 12.5)"><text x="0" y="0" font-family="Virgil, Segoe UI Emoji" font-size="20px" fill="#1e1e1e" text-anchor="start" style="white-space: pre;" direction="ltr" dominant-baseline="text-before-edge">Knoten</text></g><g transform="translate(32 120) rotate(0 32.125 12.5)"><text x="0" y="0" font-family="Virgil, Segoe UI Emoji" font-size="20px" fill="#1e1e1e" text-anchor="start" style="white-space: pre;" direction="ltr" dominant-baseline="text-before-edge">Knoten</text></g><g transform="translate(402 64) rotate(0 33.25 12.5)"><text x="0" y="0" font-family="Virgil, Segoe UI Emoji" font-size="20px" fill="#1e1e1e" text-anchor="start" style="white-space: pre;" direction="ltr" dominant-baseline="text-before-edge">Kanten</text></g><g transform="translate(416 197) rotate(0 33.25 12.5)"><text x="0" y="0" font-family="Virgil, Segoe UI Emoji" font-size="20px" fill="#1e1e1e" text-anchor="start" style="white-space: pre;" direction="ltr" dominant-baseline="text-before-edge">Kanten</text></g><g transform="translate(261 235) rotate(0 33.25 12.5)"><text x="0" y="0" font-family="Virgil, Segoe UI Emoji" font-size="20px" fill="#1e1e1e" text-anchor="start" style="white-space: pre;" direction="ltr" dominant-baseline="text-before-edge">Kanten</text></g><g transform="translate(167 110) rotate(0 33.25 12.5)"><text x="0" y="0" font-family="Virgil, Segoe UI Emoji" font-size="20px" fill="#1e1e1e" text-anchor="start" style="white-space: pre;" direction="ltr" dominant-baseline="text-before-edge">Kanten</text></g></svg>