<svg version="1.1" xmlns="http://www.w3.org/2000/svg" viewBox="0 0 1430.3319593809542 1521.9999999999998" width="1430.3319593809542" height="1521.9999999999998">
  <!-- svg-source:excalidraw -->
  
  <defs>
    <style class="style-fonts">
      @font-face {
        font-family: "Virgil";
        src: url("https://excalidraw.com/Virgil.woff2");
      }
      @font-face {
        font-family: "Cascadia";
        src: url("https://excalidraw.com/Cascadia.woff2");
      }
      @font-face {
        font-family: "Assistant";
        src: url("https://excalidraw.com/Assistant-Regular.woff2");
      }
    </style>
    
  </defs>
  <rect x="0" y="0" width="1430.3319593809542" height="1521.9999999999998" fill="#ffffff"></rect><g stroke-linecap="round" transform="translate(470.21363498486267 135) rotate(0 115 63.5)"><path d="M31.75 0 C70.72 2.83, 108.1 -0.44, 198.25 0 M31.75 0 C92.97 0.65, 155.12 0.73, 198.25 0 M198.25 0 C217.86 1.17, 231.64 11.38, 230 31.75 M198.25 0 C219.4 -0.8, 231.99 12.65, 230 31.75 M230 31.75 C230.99 50.47, 229.24 67.08, 230 95.25 M230 31.75 C229.77 48.3, 230.72 66.09, 230 95.25 M230 95.25 C230.97 114.87, 217.97 125.18, 198.25 127 M230 95.25 C228.01 118.21, 220.76 125.89, 198.25 127 M198.25 127 C157.4 128.32, 120.26 126.2, 31.75 127 M198.25 127 C156.17 125.72, 113.53 126.4, 31.75 127 M31.75 127 C11.18 128.8, -1.36 114.77, 0 95.25 M31.75 127 C11.7 127.97, -0.54 116.45, 0 95.25 M0 95.25 C-0.7 73.11, -1.58 51.65, 0 31.75 M0 95.25 C-0.01 79.72, -0.58 62.63, 0 31.75 M0 31.75 C-0.41 10.74, 9.22 -1.33, 31.75 0 M0 31.75 C0.02 12.06, 8.96 -0.05, 31.75 0" stroke="#1e1e1e" stroke-width="2" fill="none"></path></g><g stroke-linecap="round" transform="translate(769.2136349848627 10) rotate(0 115 63.5)"><path d="M31.75 0 C96.52 1.63, 163.75 2.35, 198.25 0 M31.75 0 C67.99 2.29, 106.56 1.03, 198.25 0 M198.25 0 C218.1 0.18, 231.14 8.69, 230 31.75 M198.25 0 C219.85 -0.11, 227.99 9.57, 230 31.75 M230 31.75 C229.99 55.64, 231.35 78.34, 230 95.25 M230 31.75 C230.05 56.95, 229.33 81.32, 230 95.25 M230 95.25 C230.79 116.98, 219.75 126.48, 198.25 127 M230 95.25 C229.33 114.81, 218.87 125.83, 198.25 127 M198.25 127 C157.72 124.59, 114.06 126.01, 31.75 127 M198.25 127 C147.01 126.54, 95.04 125.87, 31.75 127 M31.75 127 C12.53 128.38, -1.01 115.86, 0 95.25 M31.75 127 C8.81 128.88, 1.75 118.12, 0 95.25 M0 95.25 C-1.16 73.24, -2.08 54.36, 0 31.75 M0 95.25 C-0.22 75.94, 0.95 54.96, 0 31.75 M0 31.75 C-0.21 9.39, 12.12 -0.71, 31.75 0 M0 31.75 C-0.69 10.27, 10.94 1.22, 31.75 0" stroke="#1e1e1e" stroke-width="2" fill="none"></path></g><g stroke-linecap="round" transform="translate(580.2136349848627 299) rotate(0 115 63.5)"><path d="M31.75 0 C79.11 0.19, 124.33 -0.95, 198.25 0 M31.75 0 C64.92 -0.79, 99.46 0.51, 198.25 0 M198.25 0 C218.01 -0.05, 231.95 11.97, 230 31.75 M198.25 0 C218.25 -0.64, 228.22 12.46, 230 31.75 M230 31.75 C231.47 54.21, 229.62 77.58, 230 95.25 M230 31.75 C229.75 46.14, 229.54 59.54, 230 95.25 M230 95.25 C231.88 116.6, 219.21 125.81, 198.25 127 M230 95.25 C231.76 115.6, 218.73 126.69, 198.25 127 M198.25 127 C145.28 126.92, 94.37 124.93, 31.75 127 M198.25 127 C165.63 127.02, 130.71 126.01, 31.75 127 M31.75 127 C10.46 125.11, 0.47 116.89, 0 95.25 M31.75 127 C11.12 128.39, 2.06 116.34, 0 95.25 M0 95.25 C0.07 72.77, -2.55 50.23, 0 31.75 M0 95.25 C0.57 78.76, -0.37 63.61, 0 31.75 M0 31.75 C1.2 9.56, 10.41 -0.71, 31.75 0 M0 31.75 C-0.5 10.68, 10.59 -0.63, 31.75 0" stroke="#1e1e1e" stroke-width="2" fill="none"></path></g><g stroke-linecap="round" transform="translate(938.2136349848627 1008.9999999999999) rotate(0 115 63.50000000000006)"><path d="M31.75 0 C83.8 2.69, 137.91 0.7, 198.25 0 M31.75 0 C66.15 1.75, 98.27 0.73, 198.25 0 M198.25 0 C219.29 -1.89, 230.47 11.06, 230 31.75 M198.25 0 C219.96 1.39, 232.06 10.51, 230 31.75 M230 31.75 C231.31 54.74, 228.7 77.68, 230 95.25 M230 31.75 C229.79 47.44, 228.86 64.47, 230 95.25 M230 95.25 C231.2 115.39, 219.25 126.29, 198.25 127 M230 95.25 C229.5 116.51, 219.42 126.37, 198.25 127 M198.25 127 C133 127.84, 69.3 127.25, 31.75 127 M198.25 127 C156.54 126, 117.67 126.07, 31.75 127 M31.75 127 C12.39 128.62, -1.39 117.65, 0 95.25 M31.75 127 C9.47 128.53, -1.82 118.07, 0 95.25 M0 95.25 C1.15 70.9, 1.51 50.35, 0 31.75 M0 95.25 C-0.08 80.93, 1.46 65.18, 0 31.75 M0 31.75 C0.15 8.97, 10.22 -0.83, 31.75 0 M0 31.75 C-1.46 11.38, 11.29 0.91, 31.75 0" stroke="#1e1e1e" stroke-width="2" fill="none"></path></g><g stroke-linecap="round" transform="translate(432.21363498486267 513) rotate(0 115 63.5)"><path d="M31.75 0 C77.53 1.74, 126.38 -1.1, 198.25 0 M31.75 0 C75.59 -0.5, 117.92 -0.47, 198.25 0 M198.25 0 C217.53 -0.28, 231.87 10.45, 230 31.75 M198.25 0 C221.49 1.87, 228.4 12, 230 31.75 M230 31.75 C231.86 49.01, 228.77 63.6, 230 95.25 M230 31.75 C230.29 52.17, 228.83 73.99, 230 95.25 M230 95.25 C228.85 117.92, 221.35 127.15, 198.25 127 M230 95.25 C230.18 114.57, 218.99 126.05, 198.25 127 M198.25 127 C159.64 127.3, 118.9 126.21, 31.75 127 M198.25 127 C154.18 127.29, 112.07 127.37, 31.75 127 M31.75 127 C11.57 128.08, -0.38 116.28, 0 95.25 M31.75 127 C8.75 127.99, -1.19 117.23, 0 95.25 M0 95.25 C0.65 77.49, -0.65 63.25, 0 31.75 M0 95.25 C-0.24 70.65, 0.06 46.64, 0 31.75 M0 31.75 C0.66 11.8, 11.76 0.55, 31.75 0 M0 31.75 C1.85 10.25, 9.6 2.2, 31.75 0" stroke="#1e1e1e" stroke-width="2" fill="none"></path></g><g stroke-linecap="round" transform="translate(355.21363498486267 941) rotate(0 115 63.5)"><path d="M31.75 0 C90.45 1.72, 149.43 -1.39, 198.25 0 M31.75 0 C81.26 0.43, 129.78 -0.56, 198.25 0 M198.25 0 C217.87 0, 229.57 10.15, 230 31.75 M198.25 0 C220 -0.13, 228.98 12.02, 230 31.75 M230 31.75 C229.65 49.46, 228.81 70.5, 230 95.25 M230 31.75 C230.91 45.25, 231.11 57.74, 230 95.25 M230 95.25 C231.16 115.88, 220.42 127.65, 198.25 127 M230 95.25 C230.89 117.09, 220.68 127.11, 198.25 127 M198.25 127 C149.93 128.22, 99.97 126.09, 31.75 127 M198.25 127 C142.29 127.85, 86.38 126.79, 31.75 127 M31.75 127 C9.83 126.77, 0.24 116.41, 0 95.25 M31.75 127 C11.27 128.59, 0.78 115.71, 0 95.25 M0 95.25 C-1.14 80.12, 0.22 61.85, 0 31.75 M0 95.25 C0.55 71.36, 0.08 48.34, 0 31.75 M0 31.75 C1.96 11.24, 11.47 1.54, 31.75 0 M0 31.75 C-1.98 9.59, 11.9 -0.48, 31.75 0" stroke="#1e1e1e" stroke-width="2" fill="none"></path></g><g stroke-linecap="round" transform="translate(384.21363498486267 684) rotate(0 115 63.5)"><path d="M31.75 0 C84.85 -0.07, 137.42 -1.8, 198.25 0 M31.75 0 C93.38 -1.84, 152.58 -1.87, 198.25 0 M198.25 0 C217.92 -0.89, 229.77 9.54, 230 31.75 M198.25 0 C220.59 0.05, 231.93 10.55, 230 31.75 M230 31.75 C231.32 54.17, 230.76 74.67, 230 95.25 M230 31.75 C231.34 54.72, 229.7 79.07, 230 95.25 M230 95.25 C231.84 118.37, 221.4 127.69, 198.25 127 M230 95.25 C231.21 114.9, 219.8 125.66, 198.25 127 M198.25 127 C143.09 126.55, 87.12 128.77, 31.75 127 M198.25 127 C145.7 125.01, 90.97 125.54, 31.75 127 M31.75 127 C11.65 127.11, -1.79 115.21, 0 95.25 M31.75 127 C8.42 128.84, -0.02 118.31, 0 95.25 M0 95.25 C-1.5 74.61, -1.45 54.05, 0 31.75 M0 95.25 C0.66 74.52, -0.44 53.99, 0 31.75 M0 31.75 C-1.95 10.99, 11.97 0.96, 31.75 0 M0 31.75 C-1.3 12.49, 12.52 0.9, 31.75 0" stroke="#1e1e1e" stroke-width="2" fill="none"></path></g><g stroke-linecap="round" transform="translate(668.2136349848627 1246.9999999999998) rotate(0 115 63.5)"><path d="M31.75 0 C85.48 -2.15, 143.81 -1.71, 198.25 0 M31.75 0 C93.71 1.35, 157.87 1.61, 198.25 0 M198.25 0 C221.18 1.24, 231.57 12.32, 230 31.75 M198.25 0 C217.54 -1.5, 229.98 10.35, 230 31.75 M230 31.75 C228.59 49.49, 231.71 69.04, 230 95.25 M230 31.75 C230.99 47.03, 230.3 63.99, 230 95.25 M230 95.25 C228.94 116.03, 217.94 128.47, 198.25 127 M230 95.25 C231.82 116.9, 219.45 124.96, 198.25 127 M198.25 127 C133.68 128.15, 67.16 125.51, 31.75 127 M198.25 127 C148.58 125.43, 98.55 125.66, 31.75 127 M31.75 127 C8.97 128.6, 1.3 117.58, 0 95.25 M31.75 127 C11.9 127.26, -0.09 118.23, 0 95.25 M0 95.25 C1.57 76.09, -1.52 56.12, 0 31.75 M0 95.25 C-0.84 72.57, 0.67 50.92, 0 31.75 M0 31.75 C1.19 12.26, 9.34 -1.53, 31.75 0 M0 31.75 C-1.95 12.03, 10.62 -1.38, 31.75 0" stroke="#1e1e1e" stroke-width="2" fill="none"></path></g><g stroke-linecap="round" transform="translate(719.2136349848627 579) rotate(0 115 63.5)"><path d="M31.75 0 C96.68 -1.13, 157.89 -2.17, 198.25 0 M31.75 0 C81.96 0.31, 131.23 0.98, 198.25 0 M198.25 0 C219.25 -0.66, 228.2 10.44, 230 31.75 M198.25 0 C218.46 -1.13, 231.93 8.46, 230 31.75 M230 31.75 C230.71 55.54, 229.31 77.32, 230 95.25 M230 31.75 C230.71 49.37, 230.87 66.46, 230 95.25 M230 95.25 C230.02 118.05, 218.89 128.81, 198.25 127 M230 95.25 C231.91 118.68, 218.88 127.86, 198.25 127 M198.25 127 C138.7 128.44, 76.44 126.63, 31.75 127 M198.25 127 C150.48 127.69, 102.45 126.69, 31.75 127 M31.75 127 C9.64 126.27, 1.02 115.04, 0 95.25 M31.75 127 C11.67 126.99, -1.45 117.99, 0 95.25 M0 95.25 C-1.25 80.6, -0.49 69.72, 0 31.75 M0 95.25 C-1.14 73.67, 0.29 52.74, 0 31.75 M0 31.75 C1.56 11.57, 9.66 -1.97, 31.75 0 M0 31.75 C1.35 11.13, 12.52 2.03, 31.75 0" stroke="#1e1e1e" stroke-width="2" fill="none"></path></g><g stroke-linecap="round" transform="translate(383.21363498486267 1314.9999999999995) rotate(0 115 63.5)"><path d="M31.75 0 C81.76 2.37, 128.54 -0.54, 198.25 0 M31.75 0 C85.15 -1.18, 136.69 -2.06, 198.25 0 M198.25 0 C219.05 -0.83, 228.73 11.27, 230 31.75 M198.25 0 C220.12 0.91, 229.76 9.96, 230 31.75 M230 31.75 C229.27 45.07, 231.12 62.31, 230 95.25 M230 31.75 C230.12 55.59, 229.52 79.99, 230 95.25 M230 95.25 C228.97 117.12, 218.76 125.04, 198.25 127 M230 95.25 C230.66 116.45, 218.51 125.53, 198.25 127 M198.25 127 C131.86 123.77, 64.75 124.37, 31.75 127 M198.25 127 C157.88 128.29, 117.14 127.87, 31.75 127 M31.75 127 C9.73 128.92, 1.57 117.65, 0 95.25 M31.75 127 C10.4 125.88, -1.56 114.6, 0 95.25 M0 95.25 C-0.51 74.09, -1.77 52.16, 0 31.75 M0 95.25 C0.38 78, -0.86 60.77, 0 31.75 M0 31.75 C0.34 9.82, 9.88 -0.14, 31.75 0 M0 31.75 C-1.46 9.31, 10 -0.65, 31.75 0" stroke="#1e1e1e" stroke-width="2" fill="none"></path></g><g stroke-linecap="round" transform="translate(954.2136349848627 1384.9999999999998) rotate(0 115 63.5)"><path d="M31.75 0 C67.18 1.52, 105.82 1.42, 198.25 0 M31.75 0 C81.25 0.02, 132.18 -0.91, 198.25 0 M198.25 0 C220.07 0.01, 230.95 12.03, 230 31.75 M198.25 0 C220.54 1.82, 230.18 10.23, 230 31.75 M230 31.75 C231.71 54.5, 228.52 74.41, 230 95.25 M230 31.75 C229.5 55.74, 230.68 80.55, 230 95.25 M230 95.25 C231.32 117.07, 219.83 128.04, 198.25 127 M230 95.25 C231.95 115.49, 217.49 129.08, 198.25 127 M198.25 127 C157.94 128.37, 122.84 127.83, 31.75 127 M198.25 127 C151.8 127.39, 106.38 126.21, 31.75 127 M31.75 127 C11.77 125.05, 0.9 115.37, 0 95.25 M31.75 127 C11.43 125.76, -0.38 117.57, 0 95.25 M0 95.25 C0.59 80.95, 0.6 68.75, 0 31.75 M0 95.25 C-0.49 81.76, -0.16 66.75, 0 31.75 M0 31.75 C-1.14 8.93, 11.49 -0.67, 31.75 0 M0 31.75 C-0.91 9.69, 11.29 0.39, 31.75 0" stroke="#1e1e1e" stroke-width="2" fill="none"></path></g><g stroke-linecap="round"><g transform="translate(18.646174667403102 439.20238095238096) rotate(0 700.9999999999999 0)"><path d="M-0.33 -0.72 C233.39 -0.45, 1167.89 0.43, 1401.69 0.51" stroke="#1e1e1e" stroke-width="2.5" fill="none" stroke-dasharray="8 10"></path></g></g><mask></mask><g stroke-linecap="round"><g transform="translate(14.646174667402875 827.202380952381) rotate(0 700.9999999999999 0)"><path d="M-0.28 -0.49 C233.64 -0.66, 1169.22 -1.16, 1402.82 -1.01" stroke="#1e1e1e" stroke-width="2.5" fill="none" stroke-dasharray="8 10"></path></g></g><mask></mask><g stroke-linecap="round"><g transform="translate(10.646174667403102 1199.2023809523807) rotate(0 700.9999999999999 0)"><path d="M-0.65 -1.1 C233.05 -0.95, 1167.52 0.84, 1401.24 0.85" stroke="#1e1e1e" stroke-width="2.5" fill="none" stroke-dasharray="8 10"></path></g></g><mask></mask><g transform="translate(18.646174667402875 240.20238095238108) rotate(0 104.85832977294922 17.5)"><text x="0" y="24.528" font-family="Virgil, Segoe UI Emoji" font-size="28px" fill="#1e1e1e" text-anchor="start" style="white-space: pre;" direction="ltr" dominant-baseline="alphabetic">User Interface</text></g><g transform="translate(18.646174667402875 624.2023809523812) rotate(0 71.375 17.5)"><text x="0" y="24.528" font-family="Virgil, Segoe UI Emoji" font-size="28px" fill="#1e1e1e" text-anchor="start" style="white-space: pre;" direction="ltr" dominant-baseline="alphabetic">Application</text></g><g transform="translate(18.646174667402875 1006.2023809523812) rotate(0 46.483333587646484 17.5)"><text x="0" y="24.528" font-family="Virgil, Segoe UI Emoji" font-size="28px" fill="#1e1e1e" text-anchor="start" style="white-space: pre;" direction="ltr" dominant-baseline="alphabetic">Domain</text></g><g transform="translate(18.646174667402875 1360.2023809523807) rotate(0 102.36666870117188 17.5)"><text x="0" y="24.528" font-family="Virgil, Segoe UI Emoji" font-size="28px" fill="#1e1e1e" text-anchor="start" style="white-space: pre;" direction="ltr" dominant-baseline="alphabetic">Infrastructure</text></g><g stroke-linecap="round" transform="translate(654.2136349848627 896) rotate(0 115 63.5)"><path d="M31.75 0 C70.38 -0.14, 111.32 2.2, 198.25 0 M31.75 0 C94.24 -0.97, 156.32 -0.47, 198.25 0 M198.25 0 C218.38 0.7, 229.35 8.63, 230 31.75 M198.25 0 C220.08 0.03, 229.1 9.12, 230 31.75 M230 31.75 C230.29 55.32, 229.36 81.16, 230 95.25 M230 31.75 C230.8 47.65, 231.02 62.85, 230 95.25 M230 95.25 C229.15 118.33, 220.99 128.23, 198.25 127 M230 95.25 C229.82 115.3, 217.86 125.18, 198.25 127 M198.25 127 C139.96 126.84, 80.69 127.02, 31.75 127 M198.25 127 C154.72 127.17, 109.26 126.81, 31.75 127 M31.75 127 C10.93 126.24, -0.7 116.27, 0 95.25 M31.75 127 C9.12 125.73, -0.58 115.76, 0 95.25 M0 95.25 C0.85 78.68, -1.57 63.87, 0 31.75 M0 95.25 C0.61 69.13, -0.42 45.59, 0 31.75 M0 31.75 C1.55 9.82, 9.41 1.11, 31.75 0 M0 31.75 C1.73 10.28, 11.39 1.29, 31.75 0" stroke="#1e1e1e" stroke-width="2" fill="none"></path></g><g stroke-linecap="round"><g transform="translate(754.6461746674026 77.20238095238108) rotate(0 -34 30)"><path d="M0.8 -0.24 C-10.39 9.68, -55.36 49.87, -66.95 59.77 M-0.23 -1.42 C-11.51 8.67, -56.34 50.95, -67.35 61.19" stroke="#1e1e1e" stroke-width="2" fill="none"></path></g><g transform="translate(754.6461746674026 77.20238095238108) rotate(0 -34 30)"><path d="M-56.06 38.89 C-59.99 47.76, -63.54 51.78, -67.35 61.19 M-56.06 38.89 C-57.62 43.2, -61.56 49.67, -67.35 61.19" stroke="#1e1e1e" stroke-width="2" fill="none"></path></g><g transform="translate(754.6461746674026 77.20238095238108) rotate(0 -34 30)"><path d="M-44.36 51.37 C-52.03 56.37, -59.28 56.44, -67.35 61.19 M-44.36 51.37 C-48.67 52.8, -55.3 56.38, -67.35 61.19" stroke="#1e1e1e" stroke-width="2" fill="none"></path></g></g><mask></mask><g stroke-linecap="round"><g transform="translate(706.6461746674026 217.20238095238108) rotate(0 20 42)"><path d="M-1.13 -0.21 C5.53 13.89, 33.07 70.17, 40.07 84.04 M0.48 -1.37 C6.97 12.98, 32.48 71.41, 39.17 85.59" stroke="#1e1e1e" stroke-width="2" fill="none"></path></g><g transform="translate(706.6461746674026 217.20238095238108) rotate(0 20 42)"><path d="M21.71 67.7 C26.73 73.58, 32.6 80.56, 39.17 85.59 M21.71 67.7 C25 71.13, 29.77 74.64, 39.17 85.59" stroke="#1e1e1e" stroke-width="2" fill="none"></path></g><g transform="translate(706.6461746674026 217.20238095238108) rotate(0 20 42)"><path d="M37.29 60.66 C37.41 68.59, 38.41 77.77, 39.17 85.59 M37.29 60.66 C37.23 65.49, 38.69 70.5, 39.17 85.59" stroke="#1e1e1e" stroke-width="2" fill="none"></path></g></g><mask></mask><g stroke-linecap="round"><g transform="translate(884.6461746674026 143.20238095238108) rotate(0 -40 82.99999999999994)"><path d="M0.47 0.14 C-12.69 27.78, -65.47 139.25, -78.98 166.9 M-0.74 -0.84 C-13.97 26.99, -65.9 137.21, -79.39 165.24" stroke="#1e1e1e" stroke-width="2" fill="none"></path></g><g transform="translate(884.6461746674026 143.20238095238108) rotate(0 -40 82.99999999999994)"><path d="M-77.02 140.36 C-77.28 149.44, -76.72 154.1, -79.39 165.24 M-77.02 140.36 C-76.98 148.66, -77.49 155.36, -79.39 165.24" stroke="#1e1e1e" stroke-width="2" fill="none"></path></g><g transform="translate(884.6461746674026 143.20238095238108) rotate(0 -40 82.99999999999994)"><path d="M-61.58 147.7 C-66.48 154.67, -70.49 157.15, -79.39 165.24 M-61.58 147.7 C-66.23 153.76, -71.4 158.24, -79.39 165.24" stroke="#1e1e1e" stroke-width="2" fill="none"></path></g></g><mask></mask><g stroke-linecap="round"><g transform="translate(746.6461746674026 437.20238095238096) rotate(0 30 71)"><path d="M1.08 -1.02 C10.98 22.65, 50.45 119.33, 60.18 143.2 M0.18 1.06 C9.88 24.94, 49.62 117.95, 59.33 141.7" stroke="#1e1e1e" stroke-width="2" fill="none"></path></g><g transform="translate(746.6461746674026 437.20238095238096) rotate(0 30 71)"><path d="M42.36 123.34 C46.99 130.15, 56.84 135.65, 59.33 141.7 M42.36 123.34 C48.12 129.09, 52.63 134.56, 59.33 141.7" stroke="#1e1e1e" stroke-width="2" fill="none"></path></g><g transform="translate(746.6461746674026 437.20238095238096) rotate(0 30 71)"><path d="M58.14 116.73 C57.11 126.08, 61.23 133.97, 59.33 141.7 M58.14 116.73 C58.97 124.6, 58.5 132.15, 59.33 141.7" stroke="#1e1e1e" stroke-width="2" fill="none"></path></g></g><mask></mask><g stroke-linecap="round"><g transform="translate(714.6461746674026 621.202380952381) rotate(0 -27 -21)"><path d="M0.89 -0.63 C-8.13 -7.77, -45.64 -36.33, -54.76 -43.08 M-0.1 1.65 C-8.68 -5.36, -43.38 -34.67, -52.45 -42.11" stroke="#1e1e1e" stroke-width="2" fill="none"></path></g><g transform="translate(714.6461746674026 621.202380952381) rotate(0 -27 -21)"><path d="M-28.93 -33.64 C-35.73 -36.81, -42.24 -37.37, -52.45 -42.11 M-28.93 -33.64 C-37.74 -36.23, -47.22 -40.91, -52.45 -42.11" stroke="#1e1e1e" stroke-width="2" fill="none"></path></g><g transform="translate(714.6461746674026 621.202380952381) rotate(0 -27 -21)"><path d="M-39.88 -20.5 C-43.97 -26.97, -47.8 -30.75, -52.45 -42.11 M-39.88 -20.5 C-44.64 -27.96, -50.04 -37.55, -52.45 -42.11" stroke="#1e1e1e" stroke-width="2" fill="none"></path></g></g><mask></mask><g stroke-linecap="round"><g transform="translate(710.6461746674026 423.20238095238096) rotate(0 -40 44)"><path d="M-0.17 -0.75 C-13.7 13.7, -67.86 72.95, -81.16 87.7 M-1.73 1.48 C-14.9 16.62, -65.9 74.5, -79.06 89.08" stroke="#1e1e1e" stroke-width="2" fill="none"></path></g><g transform="translate(710.6461746674026 423.20238095238096) rotate(0 -40 44)"><path d="M-69.82 65.84 C-73.64 70.88, -75.68 79.89, -79.06 89.08 M-69.82 65.84 C-72.54 72.71, -75.46 78.6, -79.06 89.08" stroke="#1e1e1e" stroke-width="2" fill="none"></path></g><g transform="translate(710.6461746674026 423.20238095238096) rotate(0 -40 44)"><path d="M-57.05 77.21 C-64.81 78.81, -70.69 84.4, -79.06 89.08 M-57.05 77.21 C-63.35 80.85, -69.82 83.58, -79.06 89.08" stroke="#1e1e1e" stroke-width="2" fill="none"></path></g></g><mask></mask><g stroke-linecap="round"><g transform="translate(722.6461746674026 703.202380952381) rotate(0 -51 16)"><path d="M-0.34 0.3 C-17.05 5.98, -84.18 27.78, -101.16 33.07 M1.68 -0.59 C-15.03 4.87, -84.21 25.85, -101.66 31.5" stroke="#1e1e1e" stroke-width="2" fill="none"></path></g><g transform="translate(722.6461746674026 703.202380952381) rotate(0 -51 16)"><path d="M-81.79 16.34 C-85.88 21.09, -89.08 22.78, -101.66 31.5 M-81.79 16.34 C-86.97 20.8, -94.31 25.85, -101.66 31.5" stroke="#1e1e1e" stroke-width="2" fill="none"></path></g><g transform="translate(722.6461746674026 703.202380952381) rotate(0 -51 16)"><path d="M-76.69 32.66 C-81.79 33.73, -86.13 31.75, -101.66 31.5 M-76.69 32.66 C-83.24 32.2, -92.1 32.37, -101.66 31.5" stroke="#1e1e1e" stroke-width="2" fill="none"></path></g></g><mask></mask><g stroke-linecap="round"><g transform="translate(798.6461746674026 709.202380952381) rotate(0 -3 91)"><path d="M0.45 1.05 C-0.26 31.28, -4.08 151.29, -4.99 181.61 M-0.78 0.56 C-1.49 30.93, -4.66 152.85, -5.42 182.94" stroke="#1e1e1e" stroke-width="2" fill="none"></path></g><g transform="translate(798.6461746674026 709.202380952381) rotate(0 -3 91)"><path d="M-13.36 159.24 C-9.67 166.52, -10.18 172.09, -5.42 182.94 M-13.36 159.24 C-11.17 168.38, -7.25 177.15, -5.42 182.94" stroke="#1e1e1e" stroke-width="2" fill="none"></path></g><g transform="translate(798.6461746674026 709.202380952381) rotate(0 -3 91)"><path d="M3.73 159.68 C3.36 166.92, -1.22 172.38, -5.42 182.94 M3.73 159.68 C-0.57 168.69, -3.16 177.29, -5.42 182.94" stroke="#1e1e1e" stroke-width="2" fill="none"></path></g></g><mask></mask><g stroke-linecap="round"><g transform="translate(884.6461746674026 981.202380952381) rotate(0 31 40)"><path d="M-0.28 -0.68 C10.03 12.47, 52.08 66.63, 62.63 80.08 M1.78 1.57 C11.92 15.45, 51.85 68.37, 62.02 81.66" stroke="#1e1e1e" stroke-width="2" fill="none"></path></g><g transform="translate(884.6461746674026 981.202380952381) rotate(0 31 40)"><path d="M41.01 68.11 C47.64 74.14, 56.56 79.7, 62.02 81.66 M41.01 68.11 C47.86 72.33, 53.83 75.58, 62.02 81.66" stroke="#1e1e1e" stroke-width="2" fill="none"></path></g><g transform="translate(884.6461746674026 981.202380952381) rotate(0 31 40)"><path d="M54.63 57.78 C56.41 67.54, 60.37 76.86, 62.02 81.66 M54.63 57.78 C57.39 65.11, 59.26 71.47, 62.02 81.66" stroke="#1e1e1e" stroke-width="2" fill="none"></path></g></g><mask></mask><g stroke-linecap="round"><g transform="translate(650.6461746674026 967.202380952381) rotate(0 -32 21)"><path d="M-0.76 -0.09 C-11.47 6.87, -53.63 34.21, -63.98 41.34 M1.04 -1.18 C-9.84 5.96, -54.23 35.55, -64.91 42.53" stroke="#1e1e1e" stroke-width="2" fill="none"></path></g><g transform="translate(650.6461746674026 967.202380952381) rotate(0 -32 21)"><path d="M-50.03 22.44 C-55.01 28.82, -60.73 37.1, -64.91 42.53 M-50.03 22.44 C-55.44 30.47, -59.65 37.49, -64.91 42.53" stroke="#1e1e1e" stroke-width="2" fill="none"></path></g><g transform="translate(650.6461746674026 967.202380952381) rotate(0 -32 21)"><path d="M-40.6 36.71 C-48.56 38.46, -57.3 42.17, -64.91 42.53 M-40.6 36.71 C-49.5 39.57, -57.08 41.5, -64.91 42.53" stroke="#1e1e1e" stroke-width="2" fill="none"></path></g></g><mask></mask><g stroke-linecap="round"><g transform="translate(770.6461746674026 1023.202380952381) rotate(0 1 110.99999999999989)"><path d="M1.15 -0.08 C1.36 36.97, 1.67 185.47, 1.99 222.31 M0.3 -1.17 C0.29 35.51, 0.61 183.2, 1.03 220.34" stroke="#1e1e1e" stroke-width="2" fill="none"></path></g><g transform="translate(770.6461746674026 1023.202380952381) rotate(0 1 110.99999999999989)"><path d="M-7.66 196.9 C-4.67 205.25, -0.89 215.46, 1.03 220.34 M-7.66 196.9 C-6.53 202.11, -4.71 207.63, 1.03 220.34" stroke="#1e1e1e" stroke-width="2" fill="none"></path></g><g transform="translate(770.6461746674026 1023.202380952381) rotate(0 1 110.99999999999989)"><path d="M9.44 196.8 C6.26 205.35, 3.88 215.59, 1.03 220.34 M9.44 196.8 C6.96 201.93, 5.18 207.47, 1.03 220.34" stroke="#1e1e1e" stroke-width="2" fill="none"></path></g></g><mask></mask><g stroke-linecap="round"><g transform="translate(1054.6461746674026 1139.2023809523807) rotate(0 6 123)"><path d="M-0.82 0.6 C1.12 41.3, 10.07 204.16, 12.39 245.23 M0.95 -0.14 C2.7 40.62, 9.66 205.47, 11.64 246.37" stroke="#1e1e1e" stroke-width="2" fill="none"></path></g><g transform="translate(1054.6461746674026 1139.2023809523807) rotate(0 6 123)"><path d="M2.05 223.28 C6.73 232.4, 7.95 241.92, 11.64 246.37 M2.05 223.28 C5.66 232.49, 9.34 240.77, 11.64 246.37" stroke="#1e1e1e" stroke-width="2" fill="none"></path></g><g transform="translate(1054.6461746674026 1139.2023809523807) rotate(0 6 123)"><path d="M19.13 222.51 C17.59 231.8, 12.59 241.6, 11.64 246.37 M19.13 222.51 C16.14 232.05, 13.21 240.62, 11.64 246.37" stroke="#1e1e1e" stroke-width="2" fill="none"></path></g></g><mask></mask><g stroke-linecap="round"><g transform="translate(898.6461746674026 1343.2023809523807) rotate(0 27 32)"><path d="M-1.1 -0.99 C7.81 9.67, 44.04 52.59, 53.4 63.38 M0.53 1.1 C9.84 11.97, 46.74 53.95, 55.8 64.59" stroke="#1e1e1e" stroke-width="2" fill="none"></path></g><g transform="translate(898.6461746674026 1343.2023809523807) rotate(0 27 32)"><path d="M33.95 52.44 C38.73 55.25, 45.83 61.65, 55.8 64.59 M33.95 52.44 C40.08 56.25, 46.58 58.92, 55.8 64.59" stroke="#1e1e1e" stroke-width="2" fill="none"></path></g><g transform="translate(898.6461746674026 1343.2023809523807) rotate(0 27 32)"><path d="M46.87 41.24 C47.76 47.26, 51.03 56.98, 55.8 64.59 M46.87 41.24 C49.38 48.18, 52.25 53.99, 55.8 64.59" stroke="#1e1e1e" stroke-width="2" fill="none"></path></g></g><mask></mask><g stroke-linecap="round"><g transform="translate(668.6461746674026 1331.2023809523807) rotate(0 -27 22)"><path d="M-0.02 0.68 C-9.03 8.05, -45.32 35.9, -54.37 43.16 M-1.49 -0.01 C-10.66 7.58, -46.55 36.64, -55.51 44.26" stroke="#1e1e1e" stroke-width="2" fill="none"></path></g><g transform="translate(668.6461746674026 1331.2023809523807) rotate(0 -27 22)"><path d="M-42.86 22.7 C-45.38 28, -51.39 34.02, -55.51 44.26 M-42.86 22.7 C-47.73 29.46, -50.11 37.37, -55.51 44.26" stroke="#1e1e1e" stroke-width="2" fill="none"></path></g><g transform="translate(668.6461746674026 1331.2023809523807) rotate(0 -27 22)"><path d="M-31.96 35.87 C-37.36 37.56, -46.36 39.96, -55.51 44.26 M-31.96 35.87 C-40.33 38.43, -46.21 42.1, -55.51 44.26" stroke="#1e1e1e" stroke-width="2" fill="none"></path></g></g><mask></mask></svg>