<svg version="1.1" xmlns="http://www.w3.org/2000/svg" viewBox="0 0 558.9656996119235 692.9367455013096" width="558.9656996119235" height="692.9367455013096">
  <!-- svg-source:excalidraw -->
  
  <defs>
    <style class="style-fonts">
      @font-face {
        font-family: "Virgil";
        src: url("https://excalidraw.com/Virgil.woff2");
      }
      @font-face {
        font-family: "Cascadia";
        src: url("https://excalidraw.com/Cascadia.woff2");
      }
      @font-face {
        font-family: "Assistant";
        src: url("https://excalidraw.com/Assistant-Regular.woff2");
      }
    </style>
    
  </defs>
  <rect x="0" y="0" width="558.9656996119235" height="692.9367455013096" fill="#ffffff"></rect><g stroke-linecap="round" transform="translate(239.8664477637716 42) rotate(0 154.5 49)"><path d="M24.5 0 C101.62 1.56, 176.67 1.9, 284.5 0 M24.5 0 C115.13 -2.43, 204.4 -2.3, 284.5 0 M284.5 0 C300.99 -0.17, 308.32 6.58, 309 24.5 M284.5 0 C302.53 -1.44, 308.38 6.17, 309 24.5 M309 24.5 C307.99 40.38, 307.16 57.34, 309 73.5 M309 24.5 C308.25 41.49, 309.67 59.43, 309 73.5 M309 73.5 C307.09 88.96, 300.9 98.87, 284.5 98 M309 73.5 C308.61 89.32, 302.95 99.69, 284.5 98 M284.5 98 C213.08 98.64, 141.87 97.45, 24.5 98 M284.5 98 C229.56 95.73, 176.61 95.77, 24.5 98 M24.5 98 C6.65 99.75, -1.07 90.67, 0 73.5 M24.5 98 C6.46 99.76, -1.54 90.48, 0 73.5 M0 73.5 C0.15 54.51, 1.78 34.94, 0 24.5 M0 73.5 C-0.37 55.57, -1.12 39.19, 0 24.5 M0 24.5 C1.05 7.85, 7.93 -0.36, 24.5 0 M0 24.5 C-2.17 9.51, 6.27 1.28, 24.5 0" stroke="#1e1e1e" stroke-width="2" fill="none"></path></g><g stroke-linecap="round" transform="translate(239.8664477637716 141.2) rotate(0 154.5 49)"><path d="M24.5 0 C104.55 -2.49, 183.68 -0.69, 284.5 0 M24.5 0 C108.43 1.03, 191.49 1.13, 284.5 0 M284.5 0 C299.48 -0.32, 309.39 9.82, 309 24.5 M284.5 0 C301.99 1.97, 309.71 9.24, 309 24.5 M309 24.5 C307.61 43.25, 307.46 60.77, 309 73.5 M309 24.5 C309.44 37.64, 308.14 49.08, 309 73.5 M309 73.5 C309.49 90.53, 299.53 96.78, 284.5 98 M309 73.5 C309.99 91.17, 299.93 96.71, 284.5 98 M284.5 98 C197.53 100.53, 112.6 98.97, 24.5 98 M284.5 98 C212.01 97.04, 139.55 96.47, 24.5 98 M24.5 98 C8.79 98.03, 1.1 90.08, 0 73.5 M24.5 98 C8 96.23, -1.36 89.9, 0 73.5 M0 73.5 C-0.84 61.38, -1.64 45.46, 0 24.5 M0 73.5 C-0.45 61.24, -0.84 50.75, 0 24.5 M0 24.5 C1.24 9.85, 8.57 1.04, 24.5 0 M0 24.5 C-0.91 7.86, 6.95 2.09, 24.5 0" stroke="#1e1e1e" stroke-width="2" fill="none"></path></g><g stroke-linecap="round" transform="translate(239.8664477637716 240.39999999999998) rotate(0 154.5 49)"><path d="M24.5 0 C86.64 -1.07, 148.96 1.13, 284.5 0 M24.5 0 C119.04 -0.74, 212.64 -0.85, 284.5 0 M284.5 0 C302.65 1.31, 308.16 7.24, 309 24.5 M284.5 0 C299.38 -1.56, 306.77 6.72, 309 24.5 M309 24.5 C309.83 38.85, 310.09 56.84, 309 73.5 M309 24.5 C310.04 39.36, 310.18 53.67, 309 73.5 M309 73.5 C310.48 89.58, 301.74 96.4, 284.5 98 M309 73.5 C309.32 87.9, 300.33 96.51, 284.5 98 M284.5 98 C183.16 96.78, 82.43 98.14, 24.5 98 M284.5 98 C201.44 98.23, 116.44 97.5, 24.5 98 M24.5 98 C7.6 99.1, 0.81 90.92, 0 73.5 M24.5 98 C9.1 97.01, -2.02 90.45, 0 73.5 M0 73.5 C0.64 60.35, -0.43 42.32, 0 24.5 M0 73.5 C-1.07 60.44, 0.79 46.23, 0 24.5 M0 24.5 C-1.72 7.45, 9.12 1, 24.5 0 M0 24.5 C-2.24 9.05, 7.69 -0.47, 24.5 0" stroke="#1e1e1e" stroke-width="2" fill="none"></path></g><g stroke-linecap="round" transform="translate(239.8664477637716 339.59999999999997) rotate(0 154.5 48.99999999999997)"><path d="M24.5 0 C97.41 1.17, 174.76 0.86, 284.5 0 M24.5 0 C80.6 -1.78, 136.2 -1.16, 284.5 0 M284.5 0 C300.42 0.88, 309.01 10.03, 309 24.5 M284.5 0 C301.69 -1.72, 308.2 6.06, 309 24.5 M309 24.5 C309.94 33.94, 307.38 46.01, 309 73.5 M309 24.5 C308.23 44.9, 307.99 62.77, 309 73.5 M309 73.5 C308.59 90.15, 299.63 99, 284.5 98 M309 73.5 C306.75 89.24, 299.48 97.1, 284.5 98 M284.5 98 C193.97 98.48, 104.17 97.65, 24.5 98 M284.5 98 C220.64 97.4, 157.6 96.39, 24.5 98 M24.5 98 C7.66 98.51, 1.35 88.89, 0 73.5 M24.5 98 C6.8 98.48, -1.2 90.42, 0 73.5 M0 73.5 C0.93 60.27, -0.26 45.91, 0 24.5 M0 73.5 C-0.87 56.05, 0.14 38.84, 0 24.5 M0 24.5 C0.34 8.84, 8.35 -0.62, 24.5 0 M0 24.5 C1 9.19, 8.98 2.26, 24.5 0" stroke="#1e1e1e" stroke-width="2" fill="none"></path></g><g stroke-linecap="round" transform="translate(239.8664477637716 438.79999999999995) rotate(0 154.5 49)"><path d="M24.5 0 C112.88 3.55, 198.78 0.88, 284.5 0 M24.5 0 C84.14 0.45, 141.98 1.5, 284.5 0 M284.5 0 C300.65 1.42, 309.19 8.38, 309 24.5 M284.5 0 C302.42 -1.31, 309.29 7.51, 309 24.5 M309 24.5 C310.43 40.65, 309.02 54.57, 309 73.5 M309 24.5 C309.44 42.62, 308.42 61.36, 309 73.5 M309 73.5 C308.8 88.21, 301.76 99.89, 284.5 98 M309 73.5 C308.47 88.83, 298.66 98.74, 284.5 98 M284.5 98 C228.63 98.39, 173.97 96.51, 24.5 98 M284.5 98 C223.15 99.21, 161.79 99.76, 24.5 98 M24.5 98 C9.77 96.75, -0.84 88.72, 0 73.5 M24.5 98 C8.85 99.88, -0.49 87.95, 0 73.5 M0 73.5 C1.71 53.31, -1.03 36.33, 0 24.5 M0 73.5 C0.42 62.78, 0 50.87, 0 24.5 M0 24.5 C-0.62 8, 9.31 -1.99, 24.5 0 M0 24.5 C0.82 6.76, 8.9 -1.46, 24.5 0" stroke="#1e1e1e" stroke-width="2" fill="none"></path></g><g stroke-linecap="round" transform="translate(239.8664477637716 538) rotate(0 154.5 49)"><path d="M24.5 0 C86.07 0.72, 147.03 0.05, 284.5 0 M24.5 0 C119.78 -1.97, 216.54 -2.06, 284.5 0 M284.5 0 C301.76 0.05, 307.5 6.23, 309 24.5 M284.5 0 C301.71 -0.07, 307.53 9.01, 309 24.5 M309 24.5 C308.41 41.71, 310.72 62.73, 309 73.5 M309 24.5 C308.49 34.59, 309.45 45.85, 309 73.5 M309 73.5 C310.16 89.27, 299.11 96.15, 284.5 98 M309 73.5 C307.26 89.01, 300.4 99.27, 284.5 98 M284.5 98 C228.02 98.11, 169.52 98.88, 24.5 98 M284.5 98 C203.22 96.01, 121.8 96.97, 24.5 98 M24.5 98 C6.59 98.45, -1.64 88.18, 0 73.5 M24.5 98 C7.27 96.21, -0.79 88.23, 0 73.5 M0 73.5 C2.18 55.74, -1.41 38.58, 0 24.5 M0 73.5 C0.55 59.1, -1.03 44.04, 0 24.5 M0 24.5 C-1.59 8.41, 7.9 -1.97, 24.5 0 M0 24.5 C1.31 7.21, 7.08 1.71, 24.5 0" stroke="#1e1e1e" stroke-width="2" fill="none"></path></g><g stroke-linecap="round"><g transform="translate(245.8664477637716 683) rotate(0 151 -0.5)"><path d="M-0.97 -0.5 C49.22 -0.53, 250.57 -0.1, 300.94 -0.06 M0.73 -1.81 C51.29 -2.17, 252.6 -1.62, 303.1 -1.69" stroke="#1e1e1e" stroke-width="2" fill="none"></path></g><g transform="translate(245.8664477637716 683) rotate(0 151 -0.5)"><path d="M22.54 -9.02 C15.05 -8.56, 10.79 -5.65, -0.97 -0.5 M22.54 -9.02 C13.83 -5.16, 5.83 -2.57, -0.97 -0.5" stroke="#1e1e1e" stroke-width="2" fill="none"></path></g><g transform="translate(245.8664477637716 683) rotate(0 151 -0.5)"><path d="M22.51 8.08 C15.02 3.7, 10.76 1.77, -0.97 -0.5 M22.51 8.08 C13.72 5.81, 5.73 2.26, -0.97 -0.5" stroke="#1e1e1e" stroke-width="2" fill="none"></path></g><g transform="translate(245.8664477637716 683) rotate(0 151 -0.5)"><path d="M279.6 6.84 C285.42 2.85, 294.47 0.93, 303.1 -1.69 M279.6 6.84 C287.67 4.82, 296.54 1.28, 303.1 -1.69" stroke="#1e1e1e" stroke-width="2" fill="none"></path></g><g transform="translate(245.8664477637716 683) rotate(0 151 -0.5)"><path d="M279.61 -10.26 C285.44 -9.41, 294.49 -6.48, 303.1 -1.69 M279.61 -10.26 C287.76 -6.15, 296.63 -3.55, 303.1 -1.69" stroke="#1e1e1e" stroke-width="2" fill="none"></path></g></g><mask></mask><g stroke-linecap="round"><g transform="translate(10.503643596917414 43.98475609345002) rotate(0 114.18140208342709 -0.008755044651309163)"><path d="M-0.5 0.62 C37.58 0.36, 189.29 -0.65, 227.56 -0.71 M1.43 -0.1 C39.98 -0.29, 191.96 0.17, 229.85 0.46" stroke="#1e1e1e" stroke-width="2" fill="none"></path></g><g transform="translate(10.503643596917414 43.98475609345002) rotate(0 114.18140208342709 -0.008755044651309163)"><path d="M206.31 8.9 C212.53 5.78, 215.58 6.49, 229.85 0.46 M206.31 8.9 C213.63 6.5, 221.67 4.27, 229.85 0.46" stroke="#1e1e1e" stroke-width="2" fill="none"></path></g><g transform="translate(10.503643596917414 43.98475609345002) rotate(0 114.18140208342709 -0.008755044651309163)"><path d="M206.4 -8.2 C212.72 -7.51, 215.75 -2.99, 229.85 0.46 M206.4 -8.2 C213.67 -5.11, 221.69 -1.86, 229.85 0.46" stroke="#1e1e1e" stroke-width="2" fill="none"></path></g></g><mask></mask><g transform="translate(15.866447763771589 10) rotate(0 66.80833435058594 12.5)"><text x="0" y="0" font-family="Virgil, Segoe UI Emoji" font-size="20px" fill="#1e1e1e" text-anchor="start" style="white-space: pre;" direction="ltr" dominant-baseline="text-before-edge">Startadresse</text></g><g transform="translate(343.8664477637716 655) rotate(0 51.108333587646484 12.5)"><text x="0" y="0" font-family="Virgil, Segoe UI Emoji" font-size="20px" fill="#1e1e1e" text-anchor="start" style="white-space: pre;" direction="ltr" dominant-baseline="text-before-edge">Wortbreite</text></g></svg>