<svg version="1.1" xmlns="http://www.w3.org/2000/svg" viewBox="0 0 808.7666702270508 413.78936143515637" width="1617.5333404541016" height="827.5787228703127">
  <!-- svg-source:excalidraw -->
  
  <defs>
    <style class="style-fonts">
      @font-face {
        font-family: "Virgil";
        src: url("https://excalidraw.com/Virgil.woff2");
      }
      @font-face {
        font-family: "Cascadia";
        src: url("https://excalidraw.com/Cascadia.woff2");
      }
      @font-face {
        font-family: "Assistant";
        src: url("https://excalidraw.com/Assistant-Regular.woff2");
      }
    </style>
    
  </defs>
  <rect x="0" y="0" width="808.7666702270508" height="413.78936143515637" fill="#ffffff"></rect><g stroke-linecap="round"><g transform="translate(436 16.02542637474835) rotate(0 -119.5 190.5)"><path d="M1.06 -1.13 C-38.79 62.52, -198.5 318.05, -238.67 381.84 M0.15 0.89 C-39.87 64.22, -199.82 317.05, -239.45 380.16" stroke="#000000" stroke-width="1" fill="none"></path></g></g><mask></mask><g stroke-linecap="round"><g transform="translate(197 399.02542637474835) rotate(0 241 2)"><path d="M0.43 0.71 C80.75 1.55, 402.46 4.01, 482.54 4.47 M-0.81 0.03 C79.35 0.57, 401.21 1.84, 481.88 2.59" stroke="#000000" stroke-width="1" fill="none"></path></g></g><mask></mask><g stroke-linecap="round"><g transform="translate(439 14.02542637474835) rotate(0 119.5 194)"><path d="M-0.61 -0.75 C39.18 63.94, 199.6 322.96, 239.66 387.65 M1.28 1.46 C40.88 66.37, 199.38 324.51, 239.06 389" stroke="#000000" stroke-width="1" fill="none"></path></g></g><mask></mask><g stroke-linecap="round"><g transform="translate(357 141.02542637474835) rotate(0 81 0)"><path d="M-0.69 -0.53 C26.4 -0.46, 135.59 -0.06, 162.66 0.14 M1.15 1.81 C28.13 2.11, 135.44 2.27, 162.06 1.75" stroke="#000000" stroke-width="1" fill="none"></path></g></g><mask></mask><g stroke-linecap="round"><g transform="translate(278 268.02542637474835) rotate(0 159 0)"><path d="M-1.08 0.02 C51.85 0.32, 264.27 0.79, 317.25 0.97 M0.55 -1.02 C53.9 -0.97, 266.48 -0.7, 319.57 -0.65" stroke="#000000" stroke-width="1" fill="none"></path></g></g><mask></mask><g transform="translate(388.09600006103517 90.29397783440928) rotate(0 47.599998474121094 21.865724270169537)"><text x="0" y="15.323499568534807" font-family="Virgil, Segoe UI Emoji" font-size="17.492579416135623px" fill="#000000" text-anchor="start" style="white-space: pre;" direction="ltr" dominant-baseline="alphabetic">Acceptance</text><text x="0" y="37.189223838704336" font-family="Virgil, Segoe UI Emoji" font-size="17.492579416135623px" fill="#000000" text-anchor="start" style="white-space: pre;" direction="ltr" dominant-baseline="alphabetic"> Tests</text></g><g transform="translate(350 196.02542637474835) rotate(0 90.26667022705078 12.5)"><text x="0" y="17.52" font-family="Virgil, Segoe UI Emoji" font-size="20px" fill="#000000" text-anchor="start" style="white-space: pre;" direction="ltr" dominant-baseline="alphabetic">Integration Tests</text></g><g transform="translate(379 320.02542637474835) rotate(0 54.650001525878906 12.5)"><text x="0" y="17.52" font-family="Virgil, Segoe UI Emoji" font-size="20px" fill="#000000" text-anchor="start" style="white-space: pre;" direction="ltr" dominant-baseline="alphabetic">Unit Tests</text></g><g stroke-linecap="round"><g transform="translate(185.99999999999994 398.02542637474835) rotate(0 2.842170943040401e-14 -194)"><path d="M0.27 1.02 C0.45 -63.53, 0.41 -323.3, 0.2 -388.03 M-1.05 0.5 C-0.92 -63.78, -1.05 -321.53, -0.64 -386.5" stroke="#000000" stroke-width="1" fill="none"></path></g><g transform="translate(185.99999999999994 398.02542637474835) rotate(0 2.842170943040401e-14 -194)"><path d="M-8.27 -22.48 C-4.8 -16.88, -4.62 -13.52, 0.27 1.02 M-8.27 -22.48 C-6.34 -13.97, -2.56 -6.07, 0.27 1.02" stroke="#000000" stroke-width="1" fill="none"></path></g><g transform="translate(185.99999999999994 398.02542637474835) rotate(0 2.842170943040401e-14 -194)"><path d="M8.83 -22.47 C8.45 -16.83, 4.79 -13.48, 0.27 1.02 M8.83 -22.47 C4.67 -13.83, 2.35 -5.94, 0.27 1.02" stroke="#000000" stroke-width="1" fill="none"></path></g><g transform="translate(185.99999999999994 398.02542637474835) rotate(0 2.842170943040401e-14 -194)"><path d="M7.85 -362.99 C7.78 -367.92, 4.13 -375.14, -0.64 -386.5 M7.85 -362.99 C4.11 -371.09, 1.82 -379.95, -0.64 -386.5" stroke="#000000" stroke-width="1" fill="none"></path></g><g transform="translate(185.99999999999994 398.02542637474835) rotate(0 2.842170943040401e-14 -194)"><path d="M-9.25 -363.03 C-5.48 -367.99, -5.27 -375.21, -0.64 -386.5 M-9.25 -363.03 C-6.9 -371.26, -3.09 -380.09, -0.64 -386.5" stroke="#000000" stroke-width="1" fill="none"></path></g></g><mask></mask><g stroke-linecap="round"><g transform="translate(697.3304984407132 402.03040404692297) rotate(0 0 -193)"><path d="M-0.61 -0.56 C-0.7 -64.68, -0.51 -321.31, -0.5 -385.36 M1.28 1.76 C0.98 -62.66, -1.23 -322.42, -1.71 -387.15" stroke="#000000" stroke-width="1" fill="none"></path></g><g transform="translate(697.3304984407132 402.03040404692297) rotate(0 0 -193)"><path d="M-9.15 -24.06 C-7.61 -17.69, -3.01 -10.64, -0.61 -0.56 M-9.15 -24.06 C-5.34 -15.61, -2.07 -6.39, -0.61 -0.56" stroke="#000000" stroke-width="1" fill="none"></path></g><g transform="translate(697.3304984407132 402.03040404692297) rotate(0 0 -193)"><path d="M7.95 -24.05 C4.29 -17.77, 3.68 -10.72, -0.61 -0.56 M7.95 -24.05 C5.02 -15.66, 1.55 -6.44, -0.61 -0.56" stroke="#000000" stroke-width="1" fill="none"></path></g><g transform="translate(697.3304984407132 402.03040404692297) rotate(0 0 -193)"><path d="M7.03 -363.73 C3.56 -371.73, 2.9 -378.96, -1.71 -387.15 M7.03 -363.73 C4.4 -373.82, 0.86 -383.1, -1.71 -387.15" stroke="#000000" stroke-width="1" fill="none"></path></g><g transform="translate(697.3304984407132 402.03040404692297) rotate(0 0 -193)"><path d="M-10.07 -363.59 C-8.34 -371.55, -3.79 -378.82, -1.71 -387.15 M-10.07 -363.59 C-5.96 -373.69, -2.76 -383.02, -1.71 -387.15" stroke="#000000" stroke-width="1" fill="none"></path></g></g><mask></mask><g transform="translate(729 21.02542637474835) rotate(0 29.450000762939453 12.5)"><text x="0" y="17.52" font-family="Virgil, Segoe UI Emoji" font-size="20px" fill="#000000" text-anchor="start" style="white-space: pre;" direction="ltr" dominant-baseline="alphabetic">slower</text></g><g transform="translate(734 363.02542637474835) rotate(0 32.38333511352539 12.5)"><text x="0" y="17.52" font-family="Virgil, Segoe UI Emoji" font-size="20px" fill="#000000" text-anchor="start" style="white-space: pre;" direction="ltr" dominant-baseline="alphabetic">faster</text></g><g transform="translate(10 28.02542637474835) rotate(0 78.61666870117188 12.5)"><text x="0" y="17.52" font-family="Virgil, Segoe UI Emoji" font-size="20px" fill="#000000" text-anchor="start" style="white-space: pre;" direction="ltr" dominant-baseline="alphabetic">more integration</text></g><g transform="translate(30 370.02542637474835) rotate(0 67.11666870117188 12.5)"><text x="0" y="17.52" font-family="Virgil, Segoe UI Emoji" font-size="20px" fill="#000000" text-anchor="start" style="white-space: pre;" direction="ltr" dominant-baseline="alphabetic">more isolation</text></g></svg>